<?xml version="1.0" encoding="UTF-8" standalone="no"?>
<svg
   xmlns:dc="http://purl.org/dc/elements/1.1/"
   xmlns:cc="http://creativecommons.org/ns#"
   xmlns:rdf="http://www.w3.org/1999/02/22-rdf-syntax-ns#"
   xmlns:svg="http://www.w3.org/2000/svg"
   xmlns="http://www.w3.org/2000/svg"
   xmlns:sodipodi="http://sodipodi.sourceforge.net/DTD/sodipodi-0.dtd"
   xmlns:inkscape="http://www.inkscape.org/namespaces/inkscape"
   version="1.1"
   x="0px"
   y="0px"
   viewBox="0 0 24 24"
   xml:space="preserve"
   id="svg90"
   inkscape:version="0.91 r13725"
   sodipodi:docname="cook_time.svg"
   width="24"
   height="24"
   inkscape:export-filename="/home/jtebert/google-drive/Projects/Programming/python/recipe-box/workspace/other-icons/cook_time.png"
   inkscape:export-xdpi="230.39999"
   inkscape:export-ydpi="230.39999"><metadata
     id="metadata104"><rdf:RDF><cc:Work
         rdf:about=""><dc:format>image/svg+xml</dc:format><dc:type
           rdf:resource="http://purl.org/dc/dcmitype/StillImage" /><dc:title></dc:title></cc:Work></rdf:RDF></metadata><defs
     id="defs102" /><sodipodi:namedview
     pagecolor="#ffffff"
     bordercolor="#666666"
     borderopacity="1"
     objecttolerance="10"
     gridtolerance="10"
     guidetolerance="10"
     inkscape:pageopacity="0"
     inkscape:pageshadow="2"
     inkscape:window-width="930"
     inkscape:window-height="1023"
     id="namedview100"
     showgrid="false"
     inkscape:zoom="1.888"
     inkscape:cx="13.983051"
     inkscape:cy="45.021187"
     inkscape:window-x="61"
     inkscape:window-y="27"
     inkscape:window-maximized="0"
     inkscape:current-layer="svg90" /><style
     type="text/css"
     id="style92">
	.st0{fill:none;stroke:#000000;stroke-width:2;stroke-miterlimit:10;}
	.st1{fill:none;stroke:#000000;stroke-width:2;stroke-linecap:round;stroke-linejoin:round;stroke-miterlimit:10;}
</style><path
     d="m 20.244,9.384 -0.12,0 0,-0.936 0.36,0 c 0.552,0 0.984,-0.456 0.984,-0.984 0,-0.528 -0.456,-0.984 -0.984,-0.984 l -0.096,0 C 20.316,4.992 19.092,3.816 17.604,3.816 l -4.32,0 0,-0.072 C 13.284,3 12.684,2.4 11.94,2.4 11.196,2.4 10.596,3 10.596,3.744 l 0,0.072 -4.32,0 c -1.488,0 -2.712,1.2 -2.784,2.664 l -0.096,0 c -0.552,0 -0.984,0.456 -0.984,0.984 0,0.528 0.456,0.984 0.984,0.984 l 0.408,0 0,0.936 -0.048,0 c -0.744,0 -1.344,0.792 -1.344,1.8 0,1.008 0.6,1.8 1.344,1.8 l 0.024,0 -0.072,7.104 c 0.048,0.84 0.768,1.512 1.608,1.512 l 13.272,0 c 0.84,0 1.56,-0.672 1.608,-1.536 l -0.048,-7.056 0.096,0 c 0.744,0 1.344,-0.792 1.344,-1.8 0,-1.032 -0.576,-1.824 -1.344,-1.824 z M 11.1,3.72 c 0,-0.48 0.384,-0.864 0.864,-0.864 0.48,0 0.864,0.384 0.864,0.864 l 0,0.072 -1.728,0 0,-0.072 z m -4.8,0.552 11.304,0 c 1.224,0 2.256,0.984 2.304,2.184 l -15.912,0 C 4.068,5.256 5.076,4.272 6.3,4.272 Z M 2.916,7.464 C 2.916,7.176 3.156,6.96 3.42,6.96 l 17.064,0 c 0.288,0 0.504,0.24 0.504,0.504 0,0.264 -0.24,0.504 -0.504,0.504 l -17.04,0 C 3.156,7.968 2.916,7.752 2.916,7.464 Z m 0.816,5.064 c -0.456,0 -0.864,-0.6 -0.864,-1.32 0,-0.72 0.384,-1.32 0.864,-1.32 l 0.048,0 -0.024,2.664 -0.024,0 z m 14.88,8.568 -13.296,0 c -0.6,0 -1.08,-0.456 -1.128,-1.032 l 0.096,-11.616 15.36,0 0.096,11.592 c -0.048,0.6 -0.552,1.056 -1.128,1.056 z m 1.632,-8.568 -0.096,0 -0.024,-2.664 0.12,0 c 0.456,0 0.864,0.6 0.864,1.32 0,0.72 -0.384,1.344 -0.864,1.344 z"
     id="path94"
     inkscape:connector-curvature="0"
     style="fill:#f56a6a;fill-opacity:1" /><text
     x="0"
     y="39"
     font-size="5px"
     font-weight="bold"
     id="text96"
     style="font-weight:bold;font-size:5px;font-family:'Helvetica Neue', Helvetica, Arial-Unicode, Arial, Sans-serif;fill:#f56a6a;fill-opacity:1">Created by Made by Made</text>
<text
     x="0"
     y="44"
     font-size="5px"
     font-weight="bold"
     id="text98"
     style="font-weight:bold;font-size:5px;font-family:'Helvetica Neue', Helvetica, Arial-Unicode, Arial, Sans-serif;fill:#f56a6a;fill-opacity:1">from the Noun Project</text>
</svg>