<?xml version="1.0" encoding="UTF-8" standalone="no"?>
<svg
   xmlns:dc="http://purl.org/dc/elements/1.1/"
   xmlns:cc="http://creativecommons.org/ns#"
   xmlns:rdf="http://www.w3.org/1999/02/22-rdf-syntax-ns#"
   xmlns:svg="http://www.w3.org/2000/svg"
   xmlns="http://www.w3.org/2000/svg"
   xmlns:sodipodi="http://sodipodi.sourceforge.net/DTD/sodipodi-0.dtd"
   xmlns:inkscape="http://www.inkscape.org/namespaces/inkscape"
   version="1.1"
   x="0px"
   y="0px"
   viewBox="0 0 24 24"
   xml:space="preserve"
   id="svg2"
   inkscape:version="0.91 r13725"
   sodipodi:docname="prep_time.svg"
   width="24"
   height="24"
   inkscape:export-filename="/home/jtebert/google-drive/Projects/Programming/python/recipe-box/workspace/other-icons/prep_time.png"
   inkscape:export-xdpi="230.39999"
   inkscape:export-ydpi="230.39999"><metadata
     id="metadata20"><rdf:RDF><cc:Work
         rdf:about=""><dc:format>image/svg+xml</dc:format><dc:type
           rdf:resource="http://purl.org/dc/dcmitype/StillImage" /><dc:title></dc:title></cc:Work></rdf:RDF></metadata><defs
     id="defs18" /><sodipodi:namedview
     pagecolor="#ffffff"
     bordercolor="#666666"
     borderopacity="1"
     objecttolerance="10"
     gridtolerance="10"
     guidetolerance="10"
     inkscape:pageopacity="0"
     inkscape:pageshadow="2"
     inkscape:window-width="1859"
     inkscape:window-height="1023"
     id="namedview16"
     showgrid="false"
     inkscape:zoom="5.5154329"
     inkscape:cx="48.265531"
     inkscape:cy="44.567486"
     inkscape:window-x="61"
     inkscape:window-y="27"
     inkscape:window-maximized="1"
     inkscape:current-layer="svg2" /><style
     type="text/css"
     id="style4">
	.st0{fill:none;stroke:#000000;stroke-width:2;stroke-linecap:round;stroke-linejoin:round;stroke-miterlimit:10;}
</style><g
     id="g4138"
     transform="matrix(0.24,0,0,0.24,0.144,17.737295)"><circle
       style="fill:#f56a6a;fill-opacity:1"
       r="1.1000512"
       id="ellipse6"
       cy="41.550724"
       cx="50.430744"
       transform="matrix(0.85296034,-0.52197573,0.52197573,0.85296034,0,0)" /><circle
       style="fill:#f56a6a;fill-opacity:1"
       r="1.4999856"
       id="ellipse8"
       cy="17.823017"
       cx="98.699432"
       transform="matrix(0.70710678,-0.70710678,0.70710678,0.70710678,0,0)" /><path
       style="fill:#f56a6a;fill-opacity:1"
       inkscape:connector-curvature="0"
       id="path10"
       d="m 82.5,-62.6 c -1.4,0 -2.8,0.6 -3.8,1.7 L 66.8,-47.4 58,-56.2 c -1.5,-1.5 -3.4,-2.3 -5.5,-2.3 -2.1,0 -4,0.8 -5.5,2.3 l -9,9 c -9,-8.6 -13.5,-7.1 -14.2,-6.8 -0.3,0.1 -0.5,0.3 -0.5,0.6 -0.1,0.3 0,0.6 0.1,0.8 l 7.6,12.5 -17.6,17.6 c -1.5,1.5 -2.3,3.4 -2.3,5.5 0,2.1 0.8,4 2.3,5.5 l 22.4,22.4 c 1.5,1.5 3.5,2.3 5.5,2.3 2,0 4,-0.8 5.5,-2.3 l 8.2,-8.2 5.9,9.7 c 0.9,1.5 2.6,2.4 4.2,2.4 0.9,0 1.8,-0.2 2.6,-0.7 l 0,0 C 68.8,13.4 69.6,12.3 69.9,11 70.2,9.7 70,8.4 69.3,7.3 L 62.1,-4.5 80.3,-22.7 c 3,-3 3,-7.9 0,-11 L 72.5,-41.5 86,-53.4 c 1.1,-1 1.7,-2.3 1.7,-3.8 0,-1.5 -0.5,-2.8 -1.5,-3.8 -0.9,-1.1 -2.3,-1.7 -3.7,-1.6 z m -27.9,40.5 -4.6,2.9 c -0.5,0.3 -0.6,0.9 -0.3,1.4 l 2.5,4 -1.9,1.2 -24.4,-39.6 c 3.2,0.3 12.5,3.8 28.7,30.1 z M 45.3,9.4 c -2.2,2.2 -5.9,2.2 -8.1,0 L 14.8,-13 c -1.1,-1.1 -1.7,-2.5 -1.7,-4.1 0,-1.6 0.6,-3 1.7,-4.1 l 17.2,-17.2 16.4,26.8 -0.7,0.5 c -0.2,0.1 -0.4,0.4 -0.5,0.6 -0.1,0.2 0,0.5 0.1,0.8 l 6.5,10.6 -8.5,8.5 z m 22.7,1 c -0.2,0.8 -0.7,1.4 -1.3,1.8 l 0,0 c -1.4,0.9 -3.2,0.4 -4.1,-1 l -13,-21.2 5,-3.1 13,21.2 C 68,8.9 68.2,9.7 68,10.4 Z M 84.8,-55 70.5,-42.4 c -0.2,0.2 -0.3,0.4 -0.3,0.7 0,0.3 0.1,0.5 0.3,0.7 l 8.5,8.5 c 2.2,2.2 2.2,5.9 0,8.1 l -17.9,18 -5.2,-8.5 c -0.3,-0.5 -0.9,-0.6 -1.4,-0.3 l -0.7,0.4 -2,-3.2 4.7,-2.9 c 0.2,-0.1 0.4,-0.4 0.5,-0.6 0.1,-0.2 0,-0.5 -0.1,-0.8 -7,-11.4 -12.7,-18.8 -17.4,-23.6 l 9,-9 c 1.1,-1.1 2.5,-1.7 4.1,-1.7 1.5,0 3,0.6 4.1,1.7 l 9.6,9.6 c 0.2,0.2 0.5,0.3 0.7,0.3 0.3,0 0.5,-0.1 0.7,-0.3 l 12.6,-14.3 c 0.6,-0.7 1.4,-1 2.3,-1.1 0.9,0 1.7,0.3 2.4,1 0.6,0.6 1,1.5 1,2.4 -0.2,0.9 -0.5,1.7 -1.2,2.3 z" /></g><text
     x="0"
     y="39"
     font-size="5px"
     font-weight="bold"
     id="text12"
     style="font-weight:bold;font-size:5px;font-family:'Helvetica Neue', Helvetica, Arial-Unicode, Arial, Sans-serif;fill:#f56a6a;fill-opacity:1">Created by Made by Made</text>
<text
     x="0"
     y="44"
     font-size="5px"
     font-weight="bold"
     id="text14"
     style="font-weight:bold;font-size:5px;font-family:'Helvetica Neue', Helvetica, Arial-Unicode, Arial, Sans-serif;fill:#f56a6a;fill-opacity:1">from the Noun Project</text>
</svg>