<?xml version="1.0" encoding="UTF-8" standalone="no"?>
<svg
   xmlns:dc="http://purl.org/dc/elements/1.1/"
   xmlns:cc="http://creativecommons.org/ns#"
   xmlns:rdf="http://www.w3.org/1999/02/22-rdf-syntax-ns#"
   xmlns:svg="http://www.w3.org/2000/svg"
   xmlns="http://www.w3.org/2000/svg"
   xmlns:sodipodi="http://sodipodi.sourceforge.net/DTD/sodipodi-0.dtd"
   xmlns:inkscape="http://www.inkscape.org/namespaces/inkscape"
   version="1.1"
   x="0px"
   y="0px"
   viewBox="0 0 24 24"
   xml:space="preserve"
   id="svg2"
   inkscape:version="0.91 r13725"
   sodipodi:docname="recipe_yield.svg"
   width="24"
   height="24"
   inkscape:export-filename="/home/jtebert/google-drive/Projects/Programming/python/recipe-box/workspace/other-icons/recipe_yield.png"
   inkscape:export-xdpi="230.39999"
   inkscape:export-ydpi="230.39999"><metadata
     id="metadata26"><rdf:RDF><cc:Work
         rdf:about=""><dc:format>image/svg+xml</dc:format><dc:type
           rdf:resource="http://purl.org/dc/dcmitype/StillImage" /><dc:title></dc:title></cc:Work></rdf:RDF></metadata><defs
     id="defs24" /><sodipodi:namedview
     pagecolor="#ffffff"
     bordercolor="#666666"
     borderopacity="1"
     objecttolerance="10"
     gridtolerance="10"
     guidetolerance="10"
     inkscape:pageopacity="0"
     inkscape:pageshadow="2"
     inkscape:window-width="930"
     inkscape:window-height="1023"
     id="namedview22"
     showgrid="false"
     inkscape:zoom="4.4250526"
     inkscape:cx="44.137273"
     inkscape:cy="34.655"
     inkscape:window-x="61"
     inkscape:window-y="27"
     inkscape:window-maximized="0"
     inkscape:current-layer="svg2" /><style
     type="text/css"
     id="style4">
	.st0{fill:none;stroke:#000000;stroke-width:2;stroke-linecap:round;stroke-linejoin:round;stroke-miterlimit:10;}
	.st1{fill:none;stroke:#000000;stroke-width:2;stroke-linecap:round;stroke-miterlimit:10;}
	.st2{fill:none;stroke:#000000;stroke-width:2;stroke-miterlimit:10;}
	.st3{fill:none;stroke:#000000;stroke-width:2;stroke-linecap:round;stroke-linejoin:round;}
	.st4{fill:none;stroke:#000000;stroke-width:2;stroke-linecap:round;stroke-linejoin:round;stroke-dasharray:2,3;}
</style><g
     id="g4141"
     transform="translate(-33.628872,27.0698)"><path
       style="fill:#f56a6a;fill-opacity:1"
       inkscape:connector-curvature="0"
       id="path6"
       d="m 42.160327,-15.3218 c 0.552,0 1.104,-0.192 1.56,-0.6 l 1.2,1.32 -1.152,1.056 -0.168,-0.168 c -0.096,-0.096 -0.24,-0.096 -0.336,0 l -5.208,5.232 c -0.528,0.528 -0.528,1.392 0,1.944 0.264,0.264 0.624,0.408 0.96,0.408 0.336,0 0.696,-0.144 0.96,-0.408 l 5.208,-5.208 c 0.096,-0.096 0.096,-0.24 0,-0.336 l -0.168,-0.168 1.008,-1.104 1.032,1.128 -0.168,0.168 c -0.096,0.096 -0.096,0.24 0,0.336 l 5.208,5.208 c 0.264,0.264 0.624,0.408 0.96,0.408 0.336,0 0.696,-0.144 0.96,-0.408 0.528,-0.528 0.528,-1.392 0,-1.944 l -5.16,-5.208 c -0.096,-0.096 -0.24,-0.096 -0.336,0 l -0.168,0.168 -1.176,-1.08 1.248,-1.368 c 0.576,0.384 1.248,0.576 1.896,0.576 0.888,0 1.752,-0.336 2.424,-1.008 0.672,-0.672 1.344,-1.872 1.704,-3.072 0.432,-1.44 0.336,-2.592 -0.288,-3.216 -0.624,-0.624 -1.752,-0.72 -3.216,-0.288 -1.176,0.36 -2.4,1.032 -3.072,1.704 -1.176,1.176 -1.32,3 -0.432,4.32 l -1.416,1.296 -1.368,-1.248 c 0.816,-0.912 0.792,-2.328 -0.096,-3.216 l -3.864,-3.864 c -0.096,-0.096 -0.24,-0.096 -0.336,0 l -3.744,3.744 c -0.096,0.096 -0.096,0.24 0,0.336 l 3.888,3.888 c 0.456,0.456 1.056,0.672 1.656,0.672 z m 11.568,7.2 c 0.336,0.336 0.336,0.912 0,1.248 -0.336,0.336 -0.912,0.336 -1.248,0 l -5.04,-5.04 1.248,-1.248 5.04,5.04 z m -14.064,1.224 c -0.336,0.336 -0.912,0.336 -1.248,0 -0.336,-0.336 -0.336,-0.912 0,-1.248 l 5.04,-5.04 1.248,1.248 -5.04,5.04 z m 8.328,-6.288 -0.6,0.6 -1.032,-1.128 0.48,-0.528 1.152,1.056 z m 0.24,-7.728 c 0.624,-0.624 1.776,-1.248 2.856,-1.584 0.528,-0.168 1.032,-0.24 1.464,-0.24 0.552,0 1.008,0.144 1.272,0.408 0.48,0.48 0.552,1.488 0.168,2.736 -0.336,1.104 -0.96,2.256 -1.584,2.856 -1.128,1.128 -2.904,1.152 -4.08,0.096 l -0.216,-0.216 c -1.032,-1.152 -0.984,-2.928 0.12,-4.056 z m -0.216,4.632 0.048,0.048 -3.36,3.624 -0.6,-0.576 3.648,-3.336 0.048,0.048 c 0.024,0 0.168,0.144 0.216,0.192 z m -2.736,1.368 -1.2,-1.296 0.288,-0.288 1.32,1.2 -0.408,0.384 z m -4.752,-8.544 3.72,3.72 c 0.72,0.72 0.72,1.92 0,2.64 l -0.768,0.768 c -0.72,0.72 -1.92,0.72 -2.64,0 l -3.72,-3.72 3.408,-3.408 z" /><path
       style="fill:#f56a6a;fill-opacity:1"
       inkscape:connector-curvature="0"
       id="path8"
       d="m 43.216327,-18.6338 c 0.048,0.048 0.12,0.072 0.168,0.072 0.048,0 0.12,-0.024 0.168,-0.072 0.096,-0.096 0.096,-0.24 0,-0.336 l -2.784,-2.784 c -0.096,-0.096 -0.24,-0.096 -0.336,0 -0.096,0.096 -0.096,0.24 0,0.336 l 2.784,2.784 z" /><path
       style="fill:#f56a6a;fill-opacity:1"
       inkscape:connector-curvature="0"
       id="path10"
       d="m 42.424327,-17.8418 c 0.048,0.048 0.12,0.072 0.168,0.072 0.048,0 0.12,-0.024 0.168,-0.072 0.096,-0.096 0.096,-0.24 0,-0.336 l -2.784,-2.784 c -0.096,-0.096 -0.24,-0.096 -0.336,0 -0.096,0.096 -0.096,0.24 0,0.336 l 2.784,2.784 z" /><path
       style="fill:#f56a6a;fill-opacity:1"
       inkscape:connector-curvature="0"
       id="path12"
       d="m 41.824327,-17.0018 c 0.072,0 0.12,-0.024 0.168,-0.072 0.096,-0.096 0.096,-0.24 0,-0.336 l -2.784,-2.784 c -0.096,-0.096 -0.24,-0.096 -0.336,0 -0.096,0.096 -0.096,0.24 0,0.336 l 2.784,2.784 c 0.048,0.048 0.096,0.072 0.168,0.072 z" /><circle
       style="fill:#f56a6a;fill-opacity:1"
       r="0.311997"
       id="ellipse14"
       cy="32.036549"
       cx="42.855499"
       transform="matrix(0.70710678,-0.70710678,0.70710678,0.70710678,0,0)" /><circle
       style="fill:#f56a6a;fill-opacity:1"
       r="0.311997"
       id="ellipse16"
       cy="22.277267"
       cx="33.127567"
       transform="matrix(0.70710678,-0.70710678,0.70710678,0.70710678,0,0)" /></g><text
     x="33.544327"
     y="1.2622"
     font-size="5px"
     font-weight="bold"
     id="text18"
     style="font-weight:bold;font-size:1.20000005px;font-family:'Helvetica Neue', Helvetica, Arial-Unicode, Arial, Sans-serif;fill:#f56a6a;fill-opacity:1">Created by Made by Made</text>
<text
     x="33.544327"
     y="2.4621999"
     font-size="5px"
     font-weight="bold"
     id="text20"
     style="font-weight:bold;font-size:1.20000005px;font-family:'Helvetica Neue', Helvetica, Arial-Unicode, Arial, Sans-serif;fill:#f56a6a;fill-opacity:1">from the Noun Project</text>
</svg>