<?xml version="1.0" standalone="no"?>
<!DOCTYPE svg PUBLIC "-//W3C//DTD SVG 20010904//EN"
 "http://www.w3.org/TR/2001/REC-SVG-20010904/DTD/svg10.dtd">
<svg version="1.0" xmlns="http://www.w3.org/2000/svg"
 width="700.000000pt" height="700.000000pt" viewBox="0 0 700.000000 700.000000"
 preserveAspectRatio="xMidYMid meet">
<metadata>
Created by potrace 1.11, written by Peter Selinger 2001-2013
</metadata>
<g transform="translate(0.000000,700.000000) scale(0.100000,-0.100000)"
fill="#000000" stroke="none">
<path d="M514 5308 l-41 -10 13 -57 c8 -31 17 -93 20 -137 l7 -82 -49 13
c-121 30 -252 -13 -293 -98 -27 -55 -27 -97 0 -149 54 -105 176 -151 281 -106
53 22 114 84 130 129 5 16 13 29 16 29 13 -1 57 -45 109 -108 79 -94 79 -94
40 -149 -95 -133 -169 -327 -192 -498 -25 -191 -25 -512 0 -667 2 -13 6 -45
10 -73 3 -27 10 -75 15 -105 5 -30 12 -71 15 -90 20 -115 86 -402 140 -605 33
-124 156 -506 207 -645 l53 -145 196 -3 196 -2 9 72 c21 194 76 419 139 568
30 73 77 160 86 160 3 0 6 -19 7 -42 10 -214 68 -435 168 -645 l53 -113 164 0
165 0 -2 192 c-1 189 3 241 24 359 16 86 57 194 87 230 13 15 21 14 102 -12
49 -16 102 -31 118 -33 15 -3 44 -8 63 -11 133 -24 357 -24 556 0 l51 7 84
-114 c46 -62 150 -205 231 -318 81 -113 151 -209 155 -215 4 -5 19 -27 33 -47
l25 -38 186 0 186 0 -33 138 c-69 286 -109 590 -87 666 8 26 13 18 62 -100 30
-71 67 -155 83 -187 l29 -58 -31 -26 c-128 -108 -54 -313 114 -313 35 0 46 -4
51 -19 5 -17 18 -14 184 34 225 66 214 61 206 84 -3 11 -1 22 5 26 5 3 99 33
207 65 240 72 243 74 237 98 -4 15 3 21 38 31 24 7 53 17 66 22 43 17 60 11
68 -24 15 -61 19 -96 29 -227 9 -116 30 -269 39 -277 2 -3 41 3 85 12 45 9 93
18 107 21 14 3 76 15 137 29 62 13 123 26 137 28 59 11 243 61 345 94 265 85
505 204 678 337 16 12 14 21 -34 137 -71 173 -208 451 -263 534 -61 91 -116
128 -201 133 -71 5 -115 -11 -178 -61 -135 -109 -452 -266 -781 -389 -177 -66
-355 -125 -361 -120 -3 3 -5 13 -5 23 0 18 -17 14 -335 -84 l-110 -34 -22 78
c-21 79 -56 260 -50 265 2 2 21 6 42 10 88 14 368 88 494 130 150 51 300 120
376 173 28 19 51 36 53 37 2 1 5 15 7 31 5 34 25 176 30 206 2 12 6 45 10 72
3 28 8 57 10 65 4 13 -10 15 -83 15 -193 -1 -348 54 -404 143 -9 15 -24 68
-33 117 -160 889 -885 1491 -1869 1551 -184 12 -591 6 -771 -10 -22 -2 -76 -7
-120 -11 -44 -4 -88 -9 -98 -11 -10 -2 -45 -6 -78 -9 -33 -4 -70 -8 -82 -11
-12 -2 -62 -11 -112 -20 -415 -72 -741 -209 -957 -400 -27 -24 -51 -44 -53
-44 -2 0 -17 19 -34 43 -32 46 -130 150 -172 182 -25 19 -27 26 -32 125 -6
119 -33 251 -50 249 -7 -1 -30 -6 -53 -11z m2651 -181 c22 -4 65 -9 95 -12
427 -45 853 -237 1136 -511 259 -253 416 -548 490 -923 27 -140 51 -191 117
-244 75 -62 218 -111 345 -119 l43 -2 -6 -52 c-14 -119 -25 -167 -42 -179 -27
-20 -170 -91 -233 -116 -95 -37 -336 -112 -401 -124 -12 -2 -28 -6 -37 -9 -9
-3 -28 -7 -42 -10 -14 -2 -92 -18 -175 -35 -154 -31 -169 -33 -290 -51 -38 -6
-79 -12 -90 -14 -11 -2 -52 -7 -91 -11 -64 -6 -74 -10 -94 -37 -53 -71 -59
-290 -15 -508 3 -14 8 -45 11 -70 3 -25 8 -48 10 -51 2 -4 6 -22 9 -40 3 -19
12 -60 19 -91 l13 -58 -85 0 c-87 0 -122 13 -122 46 0 7 -4 14 -8 16 -4 2 -67
86 -140 188 -236 331 -356 485 -377 484 -11 -1 -49 -4 -85 -9 -147 -17 -231
-22 -345 -19 -188 3 -274 23 -547 125 -357 133 -453 141 -574 50 -114 -86
-209 -250 -283 -492 -15 -49 -57 -245 -76 -352 l-6 -38 -111 3 -111 3 -64 188
c-236 696 -352 1239 -358 1672 -3 226 6 328 42 475 72 300 268 525 594 679
126 60 336 129 469 155 132 25 192 36 230 41 25 3 56 8 70 10 24 4 44 6 170
20 107 11 147 14 290 21 80 3 146 7 147 8 6 5 472 -2 508 -7z m-2691 -207 c31
-12 32 -19 6 -71 -43 -83 -136 -103 -192 -39 -48 52 -32 97 42 118 38 11 104
8 144 -8z m5903 -2027 c42 -20 95 -97 172 -251 82 -163 172 -374 167 -388 -11
-29 -247 -161 -391 -218 -77 -31 -238 -85 -325 -110 -62 -17 -342 -83 -393
-91 -17 -4 -50 -10 -72 -15 -75 -17 -104 -20 -108 -13 -5 8 -14 81 -22 183
-16 197 -25 240 -61 286 -24 33 -64 52 -99 49 -11 -1 -55 -13 -97 -26 -43 -12
-79 -21 -81 -18 -2 2 -7 15 -10 29 -6 24 -2 27 66 49 428 142 806 311 1031
463 140 94 161 101 223 71z m-4340 -248 c76 -25 141 -49 145 -53 4 -4 -6 -34
-22 -67 -64 -132 -93 -298 -94 -542 l0 -123 -77 0 -76 0 -32 69 c-62 134 -115
324 -136 481 -7 60 -18 260 -14 260 2 0 22 7 44 14 56 20 105 13 262 -39z
m2353 -9 c0 -26 43 -232 59 -286 6 -19 11 -36 11 -36 0 -1 -46 -16 -102 -34
-57 -17 -108 -33 -114 -35 -13 -4 -70 113 -134 273 l-39 97 45 7 c25 4 65 9
87 13 23 3 71 12 107 19 36 7 68 11 73 9 4 -2 7 -15 7 -27z m568 -366 c11 -36
19 -66 18 -68 -10 -10 -323 -99 -328 -93 -5 4 -11 38 -14 77 l-6 70 78 23 c44
13 111 33 149 46 39 12 73 20 77 16 3 -3 15 -35 26 -71z m-427 -87 c0 -5 2
-24 4 -43 3 -19 7 -54 9 -77 l5 -42 -68 -21 c-37 -11 -82 -23 -100 -26 l-33
-7 7 43 c13 77 28 99 96 140 66 40 79 46 80 33z m-264 -91 c-10 -31 -19 -69
-20 -87 -2 -26 -6 -31 -28 -33 -41 -3 -79 33 -79 74 0 40 21 62 82 85 64 23
66 21 45 -39z"/>
<path d="M3399 4397 c-9 -51 -14 -154 -13 -272 1 -160 4 -202 22 -267 37 -135
96 -231 175 -282 32 -21 28 -24 56 31 l21 42 -44 41 c-63 58 -102 151 -121
290 -7 50 -10 259 -3 265 2 2 31 -7 63 -20 33 -13 123 -40 200 -60 211 -55
288 -87 321 -133 14 -20 16 -20 59 -4 57 21 58 39 5 92 -63 63 -137 93 -395
159 -163 42 -231 77 -275 140 -19 27 -40 52 -46 55 -8 3 -17 -24 -25 -77z"/>
<path d="M4490 3577 c-14 -7 -33 -29 -43 -50 -16 -31 -17 -42 -7 -73 24 -72
117 -96 170 -42 85 84 -13 218 -120 165z"/>
<path d="M6283 2769 c-27 -10 -53 -47 -53 -76 0 -29 38 -69 72 -77 39 -9 88
35 88 78 0 18 -6 40 -12 49 -17 22 -67 36 -95 26z"/>
</g>
</svg>
