<?xml version="1.0" encoding="UTF-8" standalone="no"?>
<svg
   xmlns:dc="http://purl.org/dc/elements/1.1/"
   xmlns:cc="http://creativecommons.org/ns#"
   xmlns:rdf="http://www.w3.org/1999/02/22-rdf-syntax-ns#"
   xmlns:svg="http://www.w3.org/2000/svg"
   xmlns="http://www.w3.org/2000/svg"
   xmlns:sodipodi="http://sodipodi.sourceforge.net/DTD/sodipodi-0.dtd"
   xmlns:inkscape="http://www.inkscape.org/namespaces/inkscape"
   version="1.1"
   x="0px"
   y="0px"
   viewBox="0 0 24 24"
   xml:space="preserve"
   id="svg2"
   inkscape:version="0.91 r13725"
   sodipodi:docname="source.svg"
   width="24"
   height="24"
   inkscape:export-filename="/home/jtebert/google-drive/Projects/Programming/python/recipe-box/workspace/other-icons/source.png"
   inkscape:export-xdpi="230.39999"
   inkscape:export-ydpi="230.39999"><metadata
     id="metadata22"><rdf:RDF><cc:Work
         rdf:about=""><dc:format>image/svg+xml</dc:format><dc:type
           rdf:resource="http://purl.org/dc/dcmitype/StillImage" /><dc:title></dc:title></cc:Work></rdf:RDF></metadata><defs
     id="defs20" /><sodipodi:namedview
     pagecolor="#ffffff"
     bordercolor="#666666"
     borderopacity="1"
     objecttolerance="10"
     gridtolerance="10"
     guidetolerance="10"
     inkscape:pageopacity="0"
     inkscape:pageshadow="2"
     inkscape:window-width="930"
     inkscape:window-height="1023"
     id="namedview18"
     showgrid="false"
     inkscape:zoom="7.552"
     inkscape:cx="9.0574804"
     inkscape:cy="-2.3918245"
     inkscape:window-x="61"
     inkscape:window-y="27"
     inkscape:window-maximized="0"
     inkscape:current-layer="svg2" /><style
     type="text/css"
     id="style4">
	.st0{fill:none;stroke:#000000;stroke-width:2;stroke-linecap:round;stroke-linejoin:round;stroke-miterlimit:10;}
</style><g
     id="g4153"
     transform="translate(-1.0566534,3.8267996)"><path
       style="fill:#f56a6a;fill-opacity:1"
       inkscape:connector-curvature="0"
       id="path6"
       d="m 8.5956,17.788147 c 0,0 0,0 0,0 0.024,0 0.048,0 0.096,0 0.384,0 0.696,-0.288 0.744,-0.672 l 1.536,-13.632 0,13.584 c 0,0.408 0.336,0.744 0.744,0.744 l 4.608,0 c 0.216,0 0.408,-0.096 0.552,-0.24 0.144,0.144 0.336,0.24 0.552,0.24 l 4.608,0 c 0.408,0 0.744,-0.336 0.744,-0.744 l 0,-17.352 c 0,-0.408 -0.336,-0.744 -0.744,-0.744 l -4.632,0 c -0.216,0 -0.408,0.096 -0.552,0.24 -0.144,-0.144 -0.336,-0.24 -0.552,-0.24 l -4.584,0 c -0.24,0 -0.432,0.12 -0.576,0.288 -0.12,-0.096 -0.264,-0.168 -0.432,-0.192 l -4.584,-0.528 c -0.192,-0.024 -0.384,0.024 -0.552,0.168 -0.168,0.144 -0.264,0.312 -0.288,0.504 l -1.944,17.208 c -0.024,0.192 0.024,0.384 0.168,0.552 0.144,0.168 0.312,0.264 0.504,0.288 l 4.584,0.528 z m 8.544,-18.072 c 0,-0.144 0.12,-0.264 0.264,-0.264 l 4.608,0 c 0.144,0 0.264,0.12 0.264,0.264 l 0,1.464 -5.136,0 0,-1.464 z m 0,1.944 5.16,0 0,1.056 -5.16,0 0,-1.056 z m 0,1.536 5.16,0 0,10.416 -5.16,0 0,-10.416 z m 0,10.896 5.16,0 0,1.056 -5.16,0 0,-1.056 z m 0,1.536 5.16,0 0,1.44 c 0,0.144 -0.12,0.264 -0.264,0.264 l -4.632,0 c -0.144,0 -0.264,-0.12 -0.264,-0.264 l 0,-1.44 z m -5.688,-15.912 c 0,-0.144 0.12,-0.264 0.264,-0.264 l 4.608,0 c 0.144,0 0.264,0.12 0.264,0.264 l 0,1.464 -5.136,0 0,-1.464 z m 0,1.944 5.16,0 0,1.056 -5.16,0 0,-1.056 z m 0,1.536 5.16,0 0,10.416 -5.16,0 0,-10.416 z m 0,10.896 5.16,0 0,1.056 -5.16,0 0,-1.056 z m 0,1.536 5.16,0 0,1.44 c 0,0.144 -0.12,0.264 -0.264,0.264 l -4.632,0 c -0.144,0 -0.264,-0.12 -0.264,-0.264 l 0,-1.44 z m -5.664,-16.392 c 0,-0.072 0.048,-0.144 0.096,-0.192 0.048,-0.048 0.12,-0.072 0.192,-0.048 l 4.584,0.528 c 0.144,0.024 0.264,0.144 0.24,0.288 l -0.168,1.464 -5.112,-0.576 0.168,-1.464 z m -0.24,1.944 5.112,0.576 -0.096,1.056 -5.112,-0.576 0.096,-1.056 z m -0.168,1.536 5.112,0.576 -1.176,10.344 -5.112,-0.576 1.176,-10.344 z m -1.224,10.8 5.112,0.576 -0.12,1.032 -5.112,-0.576 0.12,-1.032 z m -0.336,2.976 0.168,-1.44 5.112,0.576 -0.168,1.44 c 0,0.072 -0.048,0.144 -0.096,0.192 -0.048,0.048 -0.12,0.072 -0.192,0.048 l -4.584,-0.528 c -0.072,0 -0.144,-0.048 -0.192,-0.096 -0.024,-0.048 -0.048,-0.12 -0.048,-0.192 z" /><path
       style="fill:#f56a6a;fill-opacity:1"
       inkscape:connector-curvature="0"
       id="path8"
       d="m 14.0196,5.524147 c -1.104,0 -1.992,1.296 -1.992,2.88 0,1.584 0.888,2.88 1.992,2.88 1.104,0 1.992,-1.296 1.992,-2.88 0,-1.584 -0.888,-2.88 -1.992,-2.88 z m 0,5.256 c -0.84,0 -1.512,-1.08 -1.512,-2.4 0,-1.32 0.672,-2.4 1.512,-2.4 0.84,0 1.512,1.08 1.512,2.4 0,1.32 -0.672,2.4 -1.512,2.4 z" /><path
       style="fill:#f56a6a;fill-opacity:1"
       inkscape:connector-curvature="0"
       id="path10"
       d="m 9.0036,6.340147 c -0.312,-0.6 -0.792,-0.96 -1.32,-1.032 -0.552,-0.072 -1.08,0.192 -1.536,0.72 -0.408,0.504 -0.696,1.176 -0.768,1.92 -0.168,1.584 0.576,2.952 1.656,3.072 0.048,0 0.096,0 0.168,0 1.032,0 1.968,-1.152 2.136,-2.64 0.072,-0.744 -0.024,-1.464 -0.336,-2.04 z m -0.144,1.992 c -0.144,1.32 -0.936,2.304 -1.776,2.208 -0.84,-0.096 -1.392,-1.248 -1.224,-2.544 0.072,-0.648 0.312,-1.248 0.672,-1.656 0.312,-0.36 0.648,-0.552 1.008,-0.552 0.024,0 0.072,0 0.096,0 0.384,0.048 0.72,0.312 0.96,0.768 0.24,0.48 0.336,1.128 0.264,1.776 z" /><path
       style="fill:#f56a6a;fill-opacity:1"
       inkscape:connector-curvature="0"
       id="path12"
       d="m 19.7076,5.524147 c -1.104,0 -1.992,1.296 -1.992,2.88 0,1.584 0.888,2.88 1.992,2.88 1.104,0 1.992,-1.296 1.992,-2.88 0,-1.584 -0.888,-2.88 -1.992,-2.88 z m 0,5.256 c -0.84,0 -1.512,-1.08 -1.512,-2.4 0,-1.32 0.672,-2.4 1.512,-2.4 0.84,0 1.512,1.08 1.512,2.4 0,1.32 -0.672,2.4 -1.512,2.4 z" /></g><text
     x="1.2036"
     y="30.004147"
     font-size="5px"
     font-weight="bold"
     id="text14"
     style="font-weight:bold;font-size:1.20000005px;font-family:'Helvetica Neue', Helvetica, Arial-Unicode, Arial, Sans-serif;fill:#f56a6a;fill-opacity:1">Created by Made by Made</text>
<text
     x="1.2036"
     y="31.204147"
     font-size="5px"
     font-weight="bold"
     id="text16"
     style="font-weight:bold;font-size:1.20000005px;font-family:'Helvetica Neue', Helvetica, Arial-Unicode, Arial, Sans-serif;fill:#f56a6a;fill-opacity:1">from the Noun Project</text>
</svg>