<?xml version="1.0" encoding="UTF-8" standalone="no"?>
<svg
   xmlns:dc="http://purl.org/dc/elements/1.1/"
   xmlns:cc="http://creativecommons.org/ns#"
   xmlns:rdf="http://www.w3.org/1999/02/22-rdf-syntax-ns#"
   xmlns:svg="http://www.w3.org/2000/svg"
   xmlns="http://www.w3.org/2000/svg"
   xmlns:sodipodi="http://sodipodi.sourceforge.net/DTD/sodipodi-0.dtd"
   xmlns:inkscape="http://www.inkscape.org/namespaces/inkscape"
   version="1.1"
   x="0px"
   y="0px"
   viewBox="0 0 24 24"
   xml:space="preserve"
   id="svg2"
   inkscape:version="0.91 r13725"
   sodipodi:docname="total_time.svg"
   width="24"
   height="24"
   inkscape:export-filename="/home/jtebert/google-drive/Projects/Programming/python/recipe-box/workspace/other-icons/total_time.png"
   inkscape:export-xdpi="230.39999"
   inkscape:export-ydpi="230.39999"><metadata
     id="metadata42"><rdf:RDF><cc:Work
         rdf:about=""><dc:format>image/svg+xml</dc:format><dc:type
           rdf:resource="http://purl.org/dc/dcmitype/StillImage" /><dc:title></dc:title></cc:Work></rdf:RDF></metadata><defs
     id="defs40" /><sodipodi:namedview
     pagecolor="#ffffff"
     bordercolor="#666666"
     borderopacity="1"
     objecttolerance="10"
     gridtolerance="10"
     guidetolerance="10"
     inkscape:pageopacity="0"
     inkscape:pageshadow="2"
     inkscape:window-width="930"
     inkscape:window-height="1023"
     id="namedview38"
     showgrid="false"
     inkscape:zoom="3.776"
     inkscape:cx="40.986381"
     inkscape:cy="8.9958875"
     inkscape:window-x="61"
     inkscape:window-y="27"
     inkscape:window-maximized="0"
     inkscape:current-layer="svg2" /><style
     type="text/css"
     id="style4">
	.st0{fill:none;stroke:#000000;stroke-width:2;stroke-linecap:round;stroke-linejoin:round;stroke-miterlimit:10;}
	.st1{fill:none;stroke:#000000;stroke-width:2;stroke-miterlimit:10;}
</style><g
     id="g4149"
     transform="translate(-32.4766,24.8698)"><path
       style="fill:#f56a6a;fill-opacity:1"
       inkscape:connector-curvature="0"
       id="path6"
       d="m 44.4766,-4.0618 c 4.848,0 8.808,-3.96 8.808,-8.808 0,-4.848 -3.96,-8.808 -8.808,-8.808 -4.848,0 -8.808,3.96 -8.808,8.808 0,4.872 3.96,8.808 8.808,8.808 z m 0,-17.136 c 4.584,0 8.328,3.744 8.328,8.328 0,4.584 -3.72,8.328 -8.328,8.328 -4.584,0 -8.328,-3.744 -8.328,-8.328 0,-4.584 3.744,-8.328 8.328,-8.328 z" /><path
       style="fill:#f56a6a;fill-opacity:1"
       inkscape:connector-curvature="0"
       id="path8"
       d="m 44.4766,-12.3658 c 0.216,0 0.384,-0.12 0.48,-0.288 l 4.872,0 c 0.144,0 0.24,-0.096 0.24,-0.24 0,-0.144 -0.096,-0.24 -0.24,-0.24 l -4.872,0 c -0.048,-0.096 -0.12,-0.192 -0.24,-0.24 l 0,-4.344 c 0,-0.144 -0.096,-0.24 -0.24,-0.24 -0.144,0 -0.24,0.096 -0.24,0.24 l 0,4.344 c -0.168,0.096 -0.288,0.264 -0.288,0.48 0,0.288 0.24,0.528 0.528,0.528 z" /><path
       style="fill:#f56a6a;fill-opacity:1"
       inkscape:connector-curvature="0"
       id="path10"
       d="m 44.4766,-19.2058 c 0.144,0 0.24,-0.096 0.24,-0.24 l 0,-0.696 c 0,-0.144 -0.096,-0.24 -0.24,-0.24 -0.144,0 -0.24,0.096 -0.24,0.24 l 0,0.696 c 0,0.144 0.12,0.24 0.24,0.24 z" /><path
       style="fill:#f56a6a;fill-opacity:1"
       inkscape:connector-curvature="0"
       id="path12"
       d="m 50.6926,-12.8458 c 0,0.12 0.12,0.24 0.24,0.24 0,0 0,0 0,0 l 0.696,0 c 0.144,0 0.24,-0.12 0.24,-0.24 0,-0.12 -0.12,-0.24 -0.24,-0.24 0,0 0,0 0,0 l -0.696,0 c -0.144,0 -0.24,0.096 -0.24,0.24 z" /><path
       style="fill:#f56a6a;fill-opacity:1"
       inkscape:connector-curvature="0"
       id="path14"
       d="m 44.4046,-6.5818 c -0.144,0 -0.24,0.12 -0.24,0.24 l 0.024,0.696 c 0,0.12 0.12,0.24 0.24,0.24 0,0 0,0 0,0 0.144,0 0.24,-0.12 0.24,-0.24 l 0,-0.696 c 0,-0.144 -0.12,-0.24 -0.264,-0.24 z" /><path
       style="fill:#f56a6a;fill-opacity:1"
       inkscape:connector-curvature="0"
       id="path16"
       d="m 38.0686,-12.7738 c 0,-0.144 -0.096,-0.24 -0.24,-0.24 l -0.696,0.024 c -0.144,0 -0.24,0.12 -0.24,0.24 0,0.12 0.12,0.24 0.24,0.24 0,0 0,0 0,0 l 0.696,-0.024 c 0.144,0 0.24,-0.12 0.24,-0.24 z" /><path
       style="fill:#f56a6a;fill-opacity:1"
       inkscape:connector-curvature="0"
       id="path18"
       d="m 47.5006,-18.3658 c 0.048,0.024 0.072,0.024 0.12,0.024 0.096,0 0.168,-0.048 0.216,-0.12 l 0.336,-0.624 c 0.072,-0.12 0.024,-0.264 -0.096,-0.336 -0.12,-0.072 -0.264,-0.024 -0.336,0.096 l -0.336,0.624 c -0.048,0.144 0,0.288 0.096,0.336 z" /><path
       style="fill:#f56a6a;fill-opacity:1"
       inkscape:connector-curvature="0"
       id="path20"
       d="m 50.8126,-9.5578 -0.624,-0.336 c -0.12,-0.072 -0.264,-0.024 -0.336,0.096 -0.072,0.12 -0.024,0.264 0.096,0.336 l 0.624,0.336 c 0.048,0.024 0.072,0.024 0.12,0.024 0.096,0 0.168,-0.048 0.216,-0.12 0.072,-0.144 0.024,-0.288 -0.096,-0.336 z" /><path
       style="fill:#f56a6a;fill-opacity:1"
       inkscape:connector-curvature="0"
       id="path22"
       d="m 41.0206,-7.2538 -0.336,0.624 c -0.072,0.12 -0.024,0.264 0.096,0.336 0.024,0.024 0.072,0.024 0.12,0.024 0.096,0 0.168,-0.048 0.216,-0.12 l 0.336,-0.624 c 0.072,-0.12 0.024,-0.264 -0.096,-0.336 -0.144,-0.072 -0.288,-0.024 -0.336,0.096 z" /><path
       style="fill:#f56a6a;fill-opacity:1"
       inkscape:connector-curvature="0"
       id="path24"
       d="m 37.8526,-16.0618 0.624,0.312 c 0.024,0.024 0.072,0.024 0.12,0.024 0.096,0 0.168,-0.048 0.216,-0.12 0.072,-0.12 0.024,-0.264 -0.096,-0.312 l -0.648,-0.336 c -0.12,-0.048 -0.264,-0.024 -0.312,0.096 -0.072,0.12 -0.024,0.264 0.096,0.336 z" /><path
       style="fill:#f56a6a;fill-opacity:1"
       inkscape:connector-curvature="0"
       id="path26"
       d="m 50.0446,-15.8458 c 0.048,0 0.096,0 0.12,-0.024 l 0.6,-0.36 c 0.12,-0.072 0.144,-0.216 0.072,-0.336 -0.072,-0.12 -0.216,-0.144 -0.336,-0.072 l -0.6,0.36 c -0.12,0.072 -0.144,0.216 -0.072,0.336 0.048,0.048 0.12,0.096 0.216,0.096 z" /><path
       style="fill:#f56a6a;fill-opacity:1"
       inkscape:connector-curvature="0"
       id="path28"
       d="m 47.9326,-7.3018 c -0.072,-0.12 -0.216,-0.144 -0.336,-0.072 -0.12,0.072 -0.144,0.216 -0.072,0.336 l 0.36,0.6 c 0.048,0.072 0.12,0.12 0.216,0.12 0.048,0 0.096,0 0.12,-0.024 0.12,-0.072 0.144,-0.216 0.072,-0.336 l -0.36,-0.624 z" /><path
       style="fill:#f56a6a;fill-opacity:1"
       inkscape:connector-curvature="0"
       id="path30"
       d="m 39.0046,-9.5098 c -0.072,-0.12 -0.216,-0.144 -0.336,-0.072 l -0.6,0.384 c -0.12,0.072 -0.144,0.216 -0.072,0.336 0.048,0.072 0.12,0.12 0.192,0.12 0.048,0 0.096,0 0.12,-0.048 l 0.6,-0.384 c 0.12,-0.072 0.168,-0.216 0.096,-0.336 z" /><path
       style="fill:#f56a6a;fill-opacity:1"
       inkscape:connector-curvature="0"
       id="path32"
       d="m 40.6846,-18.1978 c 0.048,0.072 0.12,0.12 0.192,0.12 0.048,0 0.096,-0.024 0.12,-0.048 0.12,-0.072 0.144,-0.216 0.072,-0.336 l -0.384,-0.6 c -0.072,-0.12 -0.216,-0.144 -0.336,-0.072 -0.12,0.072 -0.144,0.216 -0.072,0.336 l 0.408,0.6 z" /></g><text
     x="32.668598"
     y="2.7061999"
     font-size="5px"
     font-weight="bold"
     id="text34"
     style="font-weight:bold;font-size:1.20000005px;font-family:'Helvetica Neue', Helvetica, Arial-Unicode, Arial, Sans-serif;fill:#f56a6a;fill-opacity:1">Created by Made by Made</text>
<text
     x="32.668598"
     y="3.9061999"
     font-size="5px"
     font-weight="bold"
     id="text36"
     style="font-weight:bold;font-size:1.20000005px;font-family:'Helvetica Neue', Helvetica, Arial-Unicode, Arial, Sans-serif;fill:#f56a6a;fill-opacity:1">from the Noun Project</text>
</svg>